:SAMPLES-PER-SECOND 30
:FRAME-RANGE 1-1086
:FULLY-SPECIFIED
:DEGREES
476
root  -83.4499 37.2639 46.4318 11.9852 72.8245 6.08249
RightUpLeg  -13.607 -2.32781 -13.8791
RightLeg  52.3919 -9.79097 -13.6892
RightFoot  4.51434 -1.68586 12.2862
RightToes  -5.8209e-011 0 -3.6325e-017
Spine  12.8711 0.21728 -4.64776
Spine1  1.43586 0.144423 -3.0912
HEad  -7.25854 -10.0219 -1.93278
LeftShoulder1  2.1164 -1.82575 -33.6728
LeftArm  11.2844 -9.32277 -29.9464
LeftForeArm  2.34769 -1.6052 -18.7636
LeftHand  0.367953 -1.29765 -6.29055
RightShoulder  7.90158 10.6642 48.8524
RightArm  15.8351 -3.92649 14.8335
RightForeArm  3.94898 6.92143 15.9556
RightHand  0.285809 3.28042 3.58716
LeftUpLeg  -30.7939 24.0725 -4.50896
LeftLeg  29.8104 5.29479 3.63623
LeftFoot  -6.41347 0.0768861 -0.890762
LeftToes  5.72949e-011 5.22586e-011 2.45399e-011
477
root  -82.6892 37.2128 46.1551 13.4956 74.1269 7.33966
RightUpLeg  -18.9299 0.821799 -12.9756
RightLeg  58.3158 -6.13673 -11.0461
RightFoot  2.57589 -1.61341 13.3092
RightToes  -5.8209e-011 0 -3.6325e-017
Spine  13.4113 -0.13595 -6.30368
Spine1  1.75242 -0.567525 -2.3416
HEad  -7.46807 -10.402 -1.68183
LeftShoulder1  2.17363 -1.99397 -33.5024
LeftArm  14.3029 -12.1438 -30.3851
LeftForeArm  0.0747934 -1.75034 -19.0835
LeftHand  0.319823 -0.97359 -5.76713
RightShoulder  7.99115 10.7866 48.9824
RightArm  17.7626 -3.09477 15.0874
RightForeArm  1.99893 8.9248 15.199
RightHand  0.312703 3.40396 3.8821
LeftUpLeg  -30.5944 23.2989 -5.31463
LeftLeg  31.0263 4.80157 3.48592
LeftFoot  -8.43019 0.0688744 -0.717451
LeftToes  5.72949e-011 5.22586e-011 2.45399e-011
478
root  -81.853 37.2929 45.9052 14.2314 75.435 7.85612
RightUpLeg  -23.8442 2.09448 -11.4588
RightLeg  62.3757 -6.51202 -13.7877
RightFoot  0.355782 -1.22343 11.9275
RightToes  -5.8209e-011 0 -3.6325e-017
Spine  13.7262 -0.555833 -7.29714
Spine1  1.87149 -1.21805 -1.4893
HEad  -7.12473 -10.8449 -1.19974
LeftShoulder1  2.22391 -2.17695 -33.1189
LeftArm  16.9909 -15.061 -31.096
LeftForeArm  -1.66067 -1.54439 -19.4187
LeftHand  0.281434 -0.890292 -5.141
RightShoulder  8.03251 10.877 48.9258
RightArm  19.5811 -2.59347 15.6046
RightForeArm  -0.501774 10.8269 14.3199
RightHand  0.302677 3.44598 3.72892
LeftUpLeg  -29.5996 23.0702 -5.7839
LeftLeg  31.113 3.8852 2.90738
LeftFoot  -9.84684 0.0654208 -0.482216
LeftToes  5.72949e-011 5.22586e-011 2.45399e-011
479
root  -80.9658 37.4638 45.6525 13.8613 76.8297 7.33037
RightUpLeg  -27.8552 2.09072 -9.41829
RightLeg  63.1997 -8.16162 -17.5522
RightFoot  -1.75425 -0.911807 10.7005
RightToes  -5.8209e-011 0 -3.6325e-017
Spine  14.0576 -1.01547 -7.52665
Spine1  1.6217 -1.80869 -0.495123
HEad  -6.66798 -11.5423 -0.611384
LeftShoulder1  2.27024 -2.33538 -32.853
LeftArm  20.0916 -17.9346 -31.8626
LeftForeArm  -4.08695 -1.77656 -19.6815
LeftHand  0.259156 -0.746337 -4.85502
RightShoulder  8.02163 10.9039 48.7677
RightArm  21.4396 -2.45822 16.1239
RightForeArm  -2.84162 12.411 13.477
RightHand  0.302602 3.43133 3.73522
LeftUpLeg  -28.0123 23.3349 -5.92581
LeftLeg  30.3753 2.70175 2.08865
LeftFoot  -10.7539 0.064507 0.0131919
LeftToes  5.72949e-011 5.22586e-011 2.45399e-011
480
root  -80.0517 37.6661 45.4216 12.6335 78.0943 6.02113
RightUpLeg  -30.7625 1.40492 -7.01416
RightLeg  60.4382 -10.1498 -19.0601
RightFoot  -3.50606 -0.752743 10.613
RightToes  -5.8209e-011 0 -3.6325e-017
Spine  14.2892 -1.37614 -7.21126
Spine1  1.34986 -2.16844 0.277558
HEad  -6.27177 -12.4421 0.00604321
LeftShoulder1  2.30991 -2.50393 -32.4255
LeftArm  22.0881 -20.6956 -33.0118
LeftForeArm  -5.12516 -2.36637 -19.706
LeftHand  0.238249 -0.556643 -4.6224
RightShoulder  7.97486 10.842 48.6926
RightArm  22.3419 -2.49419 16.5273
RightForeArm  -3.74963 13.1156 13.0508
RightHand  0.282215 3.51179 3.42993
LeftUpLeg  -26.0737 24.1676 -5.82149
LeftLeg  29.2762 1.18072 1.09114
LeftFoot  -11.4932 0.0697541 0.558021
LeftToes  5.72949e-011 5.22586e-011 2.45399e-011
481
root  -79.1231 37.8643 45.2103 12.0626 79.0763 5.43248
RightUpLeg  -32.5853 0.0626028 -4.63968
RightLeg  54.5111 -12.2872 -18.1536
RightFoot  -4.27425 -0.69964 10.8266
RightToes  -5.8209e-011 0 -3.6325e-017
Spine  14.2879 -1.6266 -6.91649
Spine1  1.22031 -2.4056 0.976997
HEad  -6.13774 -13.2728 0.688454
LeftShoulder1  2.33472 -2.64044 -31.9762
LeftArm  23.0896 -23.0374 -34.2937
LeftForeArm  -5.13123 -2.6209 -19.6813
LeftHand  0.239176 -0.744446 -4.47685
RightShoulder  7.97614 10.8509 48.6697
RightArm  23.4454 -2.67741 16.6695
RightForeArm  -4.01854 13.3692 12.9353
RightHand  0.311792 3.57587 3.78319
LeftUpLeg  -23.8422 24.7221 -5.70677
LeftLeg  27.9593 -0.0360444 0.348548
LeftFoot  -12.1877 0.079801 0.896246
LeftToes  5.72949e-011 5.22586e-011 2.45399e-011
482
root  -78.1937 38.0437 45.0238 12.2134 79.8653 5.61691
RightUpLeg  -33.3254 -2.12099 -2.09096
RightLeg  46.0097 -14.6675 -15.9669
RightFoot  -4.65721 -0.715908 11.6763
RightToes  -5.8209e-011 0 -3.6325e-017
Spine  14.1516 -1.8109 -6.57688
Spine1  1.20176 -2.57106 1.54188
HEad  -6.33915 -14.1064 1.2857
LeftShoulder1  2.34739 -2.71193 -31.7431
LeftArm  22.7392 -25.0182 -35.3869
LeftForeArm  -4.01951 -3.09276 -19.4604
LeftHand  0.245518 -1.04666 -4.3486
RightShoulder  7.95058 10.7945 48.7058
RightArm  23.8857 -2.8173 16.6907
RightForeArm  -3.60059 12.9485 13.2663
RightHand  0.305507 3.52841 3.72513
LeftUpLeg  -21.3739 24.8045 -5.59917
LeftLeg  26.3463 -0.629536 0.0237956
LeftFoot  -12.7866 0.0918412 1.19443
LeftToes  5.72949e-011 5.22586e-011 2.45399e-011
483
root  -77.252 38.1748 44.8675 14.1912 80.461 7.63104
RightUpLeg  -33.2731 -5.2146 0.462735
RightLeg  35.8037 -16.1212 -12.369
RightFoot  -4.54854 -0.757894 12.203
RightToes  -5.8209e-011 0 -3.6325e-017
Spine  13.7949 -1.98721 -6.35548
Spine1  1.31611 -2.72648 1.85379
HEad  -6.41144 -14.8431 1.62979
LeftShoulder1  2.35653 -2.75506 -31.6288
LeftArm  23.0002 -26.548 -36.3699
LeftForeArm  -3.4171 -4.41082 -19.0046
LeftHand  0.246236 -1.24602 -4.20965
RightShoulder  7.92973 10.7218 48.8274
RightArm  23.9033 -3.12426 16.5688
RightForeArm  -2.81976 12.24 13.7561
RightHand  0.311926 3.54521 3.80018
LeftUpLeg  -18.8218 24.8986 -5.69884
LeftLeg  24.708 -1.31401 -0.302803
LeftFoot  -13.6233 0.102035 1.01704
LeftToes  5.72949e-011 5.22586e-011 2.45399e-011
484
root  -76.2655 38.2362 44.7354 17.696 80.685 11.2555
RightUpLeg  -32.7006 -8.08172 2.71873
RightLeg  24.9587 -15.2901 -7.83277
RightFoot  -3.89454 -0.820897 12.162
RightToes  -5.8209e-011 0 -3.6325e-017
Spine  13.3006 -2.10873 -6.22264
Spine1  1.4372 -2.80211 1.86897
HEad  -6.48788 -15.4664 1.77948
LeftShoulder1  2.35399 -2.75437 -31.5922
LeftArm  24.5128 -27.738 -37.2489
LeftForeArm  -3.39784 -6.03761 -18.4376
LeftHand  0.259117 -1.5734 -4.19471
RightShoulder  7.86518 10.6065 48.8264
RightArm  22.8686 -3.51284 16.4756
RightForeArm  -1.29165 10.9861 14.4667
RightHand  0.293987 3.44468 3.61551
LeftUpLeg  -16.0416 24.5063 -5.85957
LeftLeg  23.0949 -1.29198 -0.41697
LeftFoot  -14.7568 0.109233 0.693502
LeftToes  5.72949e-011 5.22586e-011 2.45399e-011
485
root  -75.208 38.1847 44.6255 22.0892 80.413 15.8065
RightUpLeg  -32.269 -10.4401 4.55041
RightLeg  15.5349 -12.4295 -3.96614
RightFoot  -3.37607 -0.876697 12.217
RightToes  -5.8209e-011 0 -3.6325e-017
Spine  12.7128 -2.18557 -6.2886
Spine1  1.3928 -2.76664 1.62954
HEad  -6.61317 -15.8541 1.69627
LeftShoulder1  2.34287 -2.7274 -31.5762
LeftArm  24.2999 -28.2989 -37.8605
LeftForeArm  -1.85652 -7.3631 -17.7229
LeftHand  0.279794 -2.0019 -4.2373
RightShoulder  7.74263 10.4376 48.648
RightArm  21.9512 -3.92417 16.4276
RightForeArm  0.355073 9.80921 15.0529
RightHand  0.319249 3.60684 3.86396
LeftUpLeg  -13.3041 23.1054 -5.99289
LeftLeg  22.0909 0.16194 -0.460784
LeftFoot  -16.311 0.109805 0.275351
LeftToes  5.72949e-011 5.22586e-011 2.45399e-011
486
root  -74.0687 38.0542 44.5296 26.8594 80.0523 20.9015
RightUpLeg  -31.1244 -7.05429 1.85516
RightLeg  8.17046 -16.2619 0.0944492
RightFoot  -2.84348 -0.981808 12.9022
RightToes  -5.8209e-011 0 -3.6325e-017
Spine  12.0947 -2.39285 -6.53718
Spine1  1.44031 -2.89342 1.49214
HEad  -6.98332 -15.9507 1.48303
LeftShoulder1  2.34131 -2.69711 -31.7352
LeftArm  24.7517 -28.5111 -38.2508
LeftForeArm  -1.33802 -8.97682 -16.8535
LeftHand  0.28284 -2.18788 -4.1633
RightShoulder  7.66661 10.3219 48.5737
RightArm  22.2922 -4.22421 16.0805
RightForeArm  0.513419 9.41638 15.3182
RightHand  0.316643 3.57389 3.8469
LeftUpLeg  -10.5091 21.545 -6.26677
LeftLeg  21.5207 1.69518 -0.543327
LeftFoot  -17.9802 0.098984 -0.152969
LeftToes  5.72949e-011 5.22586e-011 2.45399e-011
